<svg width="43" height="43" viewBox="0 0 43 43" fill="none" xmlns="http://www.w3.org/2000/svg">
<g clip-path="url(#clip0_10_275)">
<path d="M37.2667 12.8104C37.2632 9.64559 34.6982 7.08057 31.5334 7.07707H29.3512C28.9803 3.01782 25.5765 -0.0895996 21.5001 -0.0895996C17.4237 -0.0895996 14.0199 3.01782 13.6489 7.07707H11.4667C8.30017 7.07707 5.7334 9.64384 5.7334 12.8104C5.7334 15.977 8.30017 18.5437 11.4667 18.5437H19.3501V17.1104H11.4667C9.09207 17.1104 7.16673 15.1851 7.16673 12.8104C7.16673 10.4357 9.09207 8.5104 11.4667 8.5104H15.0501V7.79373C15.0501 4.2314 17.9377 1.34373 21.5001 1.34373C25.0624 1.34373 27.9501 4.2314 27.9501 7.79373V8.5104H31.5334C33.9081 8.5104 35.8334 10.4357 35.8334 12.8104C35.8334 15.1851 33.9081 17.1104 31.5334 17.1104H23.6501V18.5437H31.5334C34.6982 18.5402 37.2632 15.9752 37.2667 12.8104Z" fill="#910078"/>
<path d="M34.4001 40.7605V28.5772C34.3987 27.3902 33.437 26.4286 32.2501 26.4272H30.8167V24.8619C31.7598 24.5302 32.3488 23.591 32.2364 22.5975C32.1241 21.604 31.3399 20.8198 30.3464 20.7075C29.353 20.5952 28.4137 21.1841 28.082 22.1272H22.2167V13.1073L23.86 14.7506L24.8734 13.7371L21.5001 10.3638L18.1267 13.7371L19.1401 14.7506L20.7834 13.1073V22.1272H14.9181C14.5864 21.1841 13.6472 20.5948 12.6537 20.7075C11.6602 20.8198 10.876 21.6037 10.7637 22.5971C10.6514 23.5906 11.2403 24.5302 12.1834 24.8616V27.1439H7.8834C6.69642 27.1453 5.7348 28.1069 5.7334 29.2938V37.8939C5.7348 39.0808 6.69642 40.0425 7.8834 40.0439H12.1834V41.4772H10.0334V42.9105H15.7667V41.4772H13.6167V40.0439H17.9167C19.1037 40.0425 20.0653 39.0808 20.0667 37.8939V29.2938C20.0653 28.1069 19.1037 27.1453 17.9167 27.1439H13.6167V24.8619C14.2239 24.6453 14.7015 24.1677 14.9181 23.5605H28.082C28.2986 24.1677 28.7763 24.6453 29.3834 24.8616V26.4272H25.0834C23.8964 26.4286 22.9348 27.3902 22.9334 28.5772V40.7605C22.9348 41.9475 23.8964 42.9091 25.0834 42.9105H32.2501C33.437 42.9091 34.3987 41.9475 34.4001 40.7605ZM18.6334 37.8939C18.633 38.2896 18.3125 38.6102 17.9167 38.6105H7.8834C7.48762 38.6102 7.16708 38.2896 7.16673 37.8939V36.4605H18.6334V37.8939ZM17.9167 28.5772C18.3125 28.5775 18.633 28.8981 18.6334 29.2938V35.0272H7.16673V29.2938C7.16708 28.8981 7.48762 28.5775 7.8834 28.5772H17.9167ZM12.9001 23.5605C12.5043 23.5605 12.1834 23.2396 12.1834 22.8438C12.1834 22.4481 12.5043 22.1272 12.9001 22.1272C13.2958 22.1272 13.6167 22.4481 13.6167 22.8438C13.6164 23.2396 13.2958 23.5602 12.9001 23.5605ZM30.1001 22.1272C30.4958 22.1272 30.8167 22.4481 30.8167 22.8438C30.8167 23.2396 30.4958 23.5605 30.1001 23.5605C29.7043 23.5605 29.3834 23.2396 29.3834 22.8438C29.3838 22.4481 29.7043 22.1275 30.1001 22.1272ZM24.3667 28.5772C24.3671 28.1814 24.6876 27.8609 25.0834 27.8605H32.2501C32.6458 27.8609 32.9664 28.1814 32.9667 28.5772V37.8939H24.3667V28.5772ZM24.3667 40.7605V39.3272H32.9667V40.7605C32.9664 41.1563 32.6458 41.4768 32.2501 41.4772H25.0834C24.6876 41.4768 24.3671 41.1563 24.3667 40.7605Z" fill="#910078"/>
</g>
<defs>
<clipPath id="clip0_10_275">
<rect width="43" height="43" fill="white"/>
</clipPath>
</defs>
</svg>
