<svg width="42" height="42" viewBox="0 0 42 42" fill="none" xmlns="http://www.w3.org/2000/svg">
<g clip-path="url(#clip0_10_220)">
<path d="M41.9774 26.2847C41.8728 23.8783 41.4543 21.2103 40.8266 18.6993C40.1988 16.2929 39.4141 14.0435 38.4725 12.3171C34.8106 5.88265 30.8348 6.8766 26.0744 8.1321C24.5573 8.49829 22.9356 8.9168 21.2616 9.07374H20.7384C19.0644 8.9168 17.4427 8.49829 15.9257 8.1321C11.1652 6.92891 7.18943 5.88265 3.52753 12.3694C2.5859 14.0958 1.7489 16.3452 1.17346 18.7516C0.545703 21.2626 0.1272 23.9306 0.0225747 26.337C-0.0820509 29.0049 0.179513 30.9405 0.754954 32.3006C1.33039 33.5561 2.1674 34.3408 3.26597 34.6547C4.25991 34.9163 5.41079 34.8117 6.61399 34.2885C8.65419 33.4515 11.0083 31.6729 13.31 29.5281C14.9317 27.9587 17.9659 27.174 21 27.174C24.0342 27.174 27.0683 27.9587 28.69 29.5281C30.9918 31.6729 33.3458 33.4515 35.386 34.2885C36.5892 34.7593 37.7401 34.9163 38.7341 34.6547C39.7803 34.3408 40.6696 33.6085 41.2451 32.2483C41.8205 30.9405 42.0821 29.0049 41.9774 26.2847ZM39.4664 31.5159C39.1526 32.2483 38.7341 32.6668 38.2109 32.8238C37.6355 32.9807 36.9031 32.8761 36.0661 32.5622C34.2352 31.8298 32.0903 30.2081 29.9978 28.2202C28.0099 26.2324 24.505 25.2384 21 25.2384C17.4951 25.2384 13.9901 26.2323 11.9499 28.1156C9.80507 30.1035 7.66024 31.7775 5.88161 32.4576C5.0446 32.7715 4.31222 32.9284 3.73678 32.7191C3.21366 32.5622 2.79515 32.1437 2.48128 31.4113C2.06277 30.4174 1.85352 28.7957 1.95815 26.3893C2.06277 24.1398 2.42896 21.5765 3.05672 19.1701C3.63216 16.9207 4.36454 14.8281 5.25386 13.2588C8.13106 8.07979 11.4791 8.9168 15.4549 9.96305C17.0765 10.3816 18.7506 10.8001 20.5815 10.957C20.6338 10.957 20.6338 10.957 20.6861 10.957H21.2616C21.3139 10.957 21.3139 10.957 21.3662 10.957C23.2495 10.8001 24.9235 10.3816 26.5452 9.96305C30.5209 8.96911 33.869 8.07979 36.7462 13.2588C37.6355 14.8281 38.3679 16.8683 38.9433 19.1701C39.5187 21.5765 39.9372 24.0875 40.0419 26.3893C40.1465 28.7957 39.9372 30.4174 39.4664 31.5159Z" fill="#B0A600"/>
<path d="M16.1871 16.0838C15.664 15.613 15.0362 15.2468 14.3038 15.1945C14.2515 14.5144 13.9376 13.8343 13.4668 13.3635L13.4145 13.3112C12.8391 12.7358 12.1067 12.4219 11.2697 12.4219C10.4327 12.4219 9.64798 12.7881 9.12485 13.3112C8.65404 13.782 8.28785 14.4621 8.23554 15.1945C7.50316 15.2468 6.8754 15.5606 6.35228 16.0315L6.29996 16.0838C5.72452 16.6592 5.41064 17.3916 5.41064 18.2286C5.41064 19.0656 5.77683 19.8503 6.29996 20.3734C6.82309 20.8966 7.45084 21.2104 8.23554 21.2627C8.28785 21.9951 8.60173 22.6752 9.12485 23.146C9.70029 23.7214 10.4327 24.0353 11.2697 24.0353C12.1067 24.0353 12.8914 23.6691 13.4145 23.146C13.8853 22.6229 14.2515 21.9951 14.3038 21.2627C15.0362 21.2104 15.7163 20.8966 16.1871 20.3734C16.7625 19.798 17.0764 19.0656 17.0764 18.2286C17.0764 17.3916 16.7102 16.6069 16.1871 16.0838ZM14.8793 19.0133C14.67 19.2225 14.4084 19.3272 14.0946 19.3272H13.3622C12.8391 19.3272 12.3682 19.7457 12.3682 20.3211V21.0012C12.3682 21.3151 12.2636 21.5766 12.0544 21.7859C11.8451 21.9951 11.5836 22.0997 11.2697 22.0997C10.9558 22.0997 10.6942 21.9951 10.485 21.7859C10.2757 21.5766 10.1711 21.3151 10.1711 21.0012V20.2688C10.1711 19.7457 9.75261 19.2749 9.17717 19.2749H8.44479C8.13091 19.2749 7.86935 19.1702 7.6601 18.961C7.50316 18.804 7.34622 18.5425 7.34622 18.2286C7.34622 17.9147 7.45084 17.6532 7.6601 17.4439C7.6601 17.4439 7.6601 17.4439 7.71241 17.3916C7.92166 17.2347 8.18322 17.13 8.44479 17.13H9.17717C9.70029 17.13 10.1711 16.7115 10.1711 16.1361V15.4037C10.1711 15.0898 10.2757 14.8283 10.485 14.619C10.6942 14.4098 10.9558 14.3051 11.2697 14.3051C11.5836 14.3051 11.8451 14.4098 12.0544 14.619C12.0544 14.619 12.0544 14.619 12.1067 14.6713C12.2636 14.8806 12.3682 15.1421 12.3682 15.4037V16.1361C12.3682 16.6592 12.7867 17.13 13.3622 17.13H14.0946C14.4084 17.13 14.67 17.2347 14.8793 17.4439C15.0885 17.6532 15.1931 17.9147 15.1931 18.2286C15.1931 18.5425 15.0885 18.804 14.8793 19.0133Z" fill="#B0A600"/>
<path d="M30.1024 16.3452C31.1136 16.3452 31.9334 15.5255 31.9334 14.5143C31.9334 13.5031 31.1136 12.6833 30.1024 12.6833C29.0912 12.6833 28.2715 13.5031 28.2715 14.5143C28.2715 15.5255 29.0912 16.3452 30.1024 16.3452Z" fill="#B0A600"/>
<path d="M30.1024 23.7737C31.1136 23.7737 31.9334 22.954 31.9334 21.9428C31.9334 20.9316 31.1136 20.1118 30.1024 20.1118C29.0912 20.1118 28.2715 20.9316 28.2715 21.9428C28.2715 22.954 29.0912 23.7737 30.1024 23.7737Z" fill="#B0A600"/>
<path d="M26.3881 20.0594C27.3993 20.0594 28.219 19.2396 28.219 18.2284C28.219 17.2172 27.3993 16.3975 26.3881 16.3975C25.3769 16.3975 24.5571 17.2172 24.5571 18.2284C24.5571 19.2396 25.3769 20.0594 26.3881 20.0594Z" fill="#B0A600"/>
<path d="M33.8168 20.0594C34.828 20.0594 35.6477 19.2396 35.6477 18.2284C35.6477 17.2172 34.828 16.3975 33.8168 16.3975C32.8056 16.3975 31.9858 17.2172 31.9858 18.2284C31.9858 19.2396 32.8056 20.0594 33.8168 20.0594Z" fill="#B0A600"/>
</g>
<defs>
<clipPath id="clip0_10_220">
<rect width="42" height="42" fill="white"/>
</clipPath>
</defs>
</svg>
