<svg width="41" height="41" viewBox="0 0 41 41" fill="none" xmlns="http://www.w3.org/2000/svg">
<g clip-path="url(#clip0_10_243)">
<path d="M21.5138 19.487C21.2007 19.1739 20.6938 19.1739 20.3807 19.487C20.0684 19.7993 20.0684 20.3062 20.3807 20.6193C20.6938 20.9316 21.2007 20.9316 21.5138 20.6193C21.8261 20.3062 21.8261 19.7993 21.5138 19.487Z" fill="#0073C6"/>
<path d="M31.7056 9.29461C30.1409 7.72996 27.6078 7.72988 26.043 9.29461C24.4824 10.8552 24.4823 13.3953 26.0433 14.9572C27.6045 16.5175 30.1446 16.5181 31.7056 14.9571C33.2702 13.3925 33.2705 10.8594 31.7056 9.29461ZM30.5731 13.8245C29.6368 14.761 28.1126 14.761 27.1757 13.8247C26.2392 12.8876 26.2391 11.3634 27.1756 10.4271C28.1143 9.48832 29.6342 9.48816 30.5731 10.4271C31.5119 11.3657 31.512 12.8857 30.5731 13.8245Z" fill="#0073C6"/>
<path d="M40.7653 0.234556C40.6081 0.0773632 40.3935 -0.00783979 40.1704 0.000568394C39.9893 0.00705471 35.6783 0.180343 30.5537 1.99163C26.4473 3.44152 23.0245 5.51738 20.3804 8.16156C19.7879 8.75405 19.2114 9.38235 18.6597 10.0351C16.0453 8.49612 13.9503 8.97867 12.6259 9.68744C9.57648 11.3194 7.68896 15.7506 7.68896 18.9201C7.68921 19.2439 7.88436 19.536 8.18353 19.6599C8.28258 19.701 8.38668 19.7209 8.48982 19.7209C8.69827 19.7209 8.90303 19.6395 9.05622 19.4863C10.6644 17.8781 12.648 17.9787 13.296 18.0639L13.5765 18.3444C13.0246 19.6576 12.58 20.9635 12.2539 22.2337C12.1362 22.6933 12.1759 23.1797 12.3509 23.6246C11.5799 23.9799 10.836 24.5016 10.1884 25.1493C8.12707 27.2107 7.7085 32.2343 7.69169 32.4471C7.67327 32.6807 7.75799 32.9107 7.92367 33.0764C8.07446 33.2271 8.27842 33.3109 8.48982 33.3109C8.51081 33.3109 8.53187 33.3101 8.55293 33.3084C8.76577 33.2917 13.7895 32.8731 15.8508 30.8119C16.4983 30.1644 17.0199 29.4207 17.3752 28.6498C17.8462 28.835 18.331 28.8579 18.767 28.7462C20.0365 28.4202 21.3423 27.9757 22.6557 27.4238L22.9361 27.7042C23.0213 28.3523 23.1218 30.3359 21.5137 31.9439C21.2848 32.1729 21.2162 32.5174 21.3402 32.8165C21.4641 33.1158 21.756 33.3108 22.0799 33.3108C25.2494 33.3108 29.6805 31.4233 31.3125 28.3739C32.0213 27.0496 32.5038 24.9546 30.9649 22.3402C31.6173 21.7887 32.2457 21.2122 32.8384 20.6194C35.4826 17.9753 37.5584 14.5525 39.0083 10.4464C40.8196 5.32159 40.9928 1.01051 40.9993 0.829536C41.0073 0.607319 40.9225 0.391829 40.7653 0.234556ZM9.47935 17.1977C9.97679 14.7903 11.4216 12.1486 13.3819 11.0995C14.6919 10.3985 16.1238 10.4672 17.6463 11.3005C16.3492 13.0064 15.2217 14.8441 14.2818 16.7848C14.2699 16.7775 14.1257 16.5962 13.8579 16.5359C13.7478 16.511 11.629 16.0552 9.47935 17.1977ZM14.7184 29.6793C13.6173 30.7804 11.0344 31.3611 9.40183 31.5982C9.63902 29.9656 10.2198 27.3828 11.3208 26.2818C11.9374 25.6652 12.6524 25.1977 13.371 24.9344L16.0658 27.6292C15.8025 28.3478 15.3351 29.0627 14.7184 29.6793ZM18.3691 27.1947C18.1374 27.2541 17.869 27.1669 17.6694 26.9677C16.6334 25.9317 16.2282 25.5265 16.101 25.3994C15.8678 25.1662 15.296 24.5944 14.0329 23.3312C13.8332 23.1311 13.7461 22.8628 13.8052 22.6314C14.0617 21.6325 14.3972 20.6077 14.8051 19.573L21.4271 26.195C20.3923 26.603 19.3676 26.9384 18.3691 27.1947ZM29.9007 27.6182C28.8515 29.5784 26.2099 31.0233 23.8026 31.5207C24.5701 30.0763 24.7393 28.2377 24.4589 27.1227C24.3938 26.8638 24.2248 26.7336 24.2154 26.7183C26.1559 25.7784 27.9936 24.6508 29.6996 23.3538C30.533 24.8764 30.6016 26.3084 29.9007 27.6182ZM31.7061 19.487C30.9845 20.2085 30.2075 20.9056 29.3967 21.5588C27.4474 23.1283 25.302 24.4577 23.013 25.5161L15.4841 17.9873C16.5424 15.6982 17.8718 13.5527 19.4412 11.6037C20.095 10.7923 20.792 10.0152 21.5132 9.29402C23.8855 6.92163 26.9472 5.03355 30.6158 3.67447L37.3257 10.3844C35.9667 14.0528 34.0787 17.1145 31.7061 19.487ZM37.9018 8.69544L32.3047 3.09831C35.3541 2.15114 38.007 1.79648 39.3312 1.66899C39.2037 2.9934 38.8489 5.64631 37.9018 8.69544Z" fill="#0073C6"/>
<path d="M19.2483 33.076C18.9354 32.7633 18.4283 32.7635 18.1157 33.0762L15.8511 35.3416C15.5385 35.6544 15.5386 36.1614 15.8513 36.474C16.1641 36.7867 16.6712 36.7867 16.9838 36.4739L19.2484 34.2085C19.561 33.8957 19.561 33.3886 19.2483 33.076Z" fill="#0073C6"/>
<path d="M7.92402 21.7517C7.6114 21.4389 7.10442 21.4389 6.79156 21.7515L4.52615 24.0161C4.21337 24.3288 4.21329 24.8358 4.52591 25.1486C4.83846 25.4612 5.34543 25.4615 5.65838 25.1488L7.92378 22.8842C8.23657 22.5715 8.23665 22.0645 7.92402 21.7517Z" fill="#0073C6"/>
<path d="M13.5865 34.2094C13.2739 33.8967 12.7668 33.8967 12.454 34.2093L7.02952 39.633C6.71674 39.9457 6.71674 40.4528 7.02944 40.7655C7.34198 41.0782 7.84912 41.0783 8.1619 40.7655L13.5864 35.3419C13.8992 35.0292 13.8992 34.5221 13.5865 34.2094Z" fill="#0073C6"/>
<path d="M7.18021 34.2094C6.86759 33.8967 6.36046 33.8967 6.04775 34.2093L0.62327 39.633C0.310486 39.9457 0.310486 40.4528 0.62319 40.7655C0.935735 41.0782 1.44287 41.0783 1.75565 40.7655L7.18013 35.3419C7.49292 35.0292 7.49292 34.5221 7.18021 34.2094Z" fill="#0073C6"/>
<path d="M6.79066 27.4137C6.47804 27.101 5.9709 27.101 5.6582 27.4137L0.234518 32.8382C-0.0781861 33.151 -0.0781861 33.658 0.234598 33.9707C0.547303 34.2835 1.05436 34.2835 1.36706 33.9707L6.79074 28.5462C7.10345 28.2334 7.10345 27.7264 6.79066 27.4137Z" fill="#0073C6"/>
<path d="M24.911 16.0893C24.5982 15.7766 24.0913 15.7766 23.7785 16.0893L22.6461 17.2216C22.3334 17.5343 22.3334 18.0413 22.6461 18.3541C22.9589 18.6668 23.4659 18.6668 23.7787 18.3541L24.911 17.2218C25.2237 16.9091 25.2237 16.402 24.911 16.0893Z" fill="#0073C6"/>
</g>
<defs>
<clipPath id="clip0_10_243">
<rect width="41" height="41" fill="white"/>
</clipPath>
</defs>
</svg>
